<?xml version="1.0" encoding="iso-8859-1"?>
<!-- Uploaded to: SVG Repo, www.svgrepo.com, Generator: SVG Repo Mixer Tools -->
<svg fill="#000000" height="800px" width="800px" version="1.1" id="Layer_1" xmlns="http://www.w3.org/2000/svg" xmlns:xlink="http://www.w3.org/1999/xlink" 
	 viewBox="0 0 470 470" xml:space="preserve">
<g>
	<g>
		<g>
			<path d="M427.128,205.372c-4.161-14.354-9.891-28.045-16.99-40.881c13.162-22.396,9.711-51.008-8.967-69.688
				c-18.68-18.679-47.292-22.131-69.688-8.967c-12.835-7.1-26.527-12.83-40.881-16.991C284.051,43.737,261.39,25.974,235,25.974
				s-49.05,17.763-55.602,42.872c-14.354,4.16-28.046,9.891-40.881,16.99c-22.395-13.161-51.007-9.709-69.687,8.968
				c-18.679,18.679-22.13,47.292-8.968,69.688c-7.099,12.835-12.83,26.527-16.99,40.881C17.763,211.924,0,234.584,0,260.974
				c0,26.408,17.788,49.081,42.924,55.614c4.142,14.257,9.839,27.956,16.948,40.853c-13.173,22.399-9.724,51.021,8.958,69.703
				c11.155,11.156,25.853,16.883,40.656,16.882c9.955,0,19.958-2.596,28.96-7.869c4.64,2.562,9.4,4.958,14.282,7.164
				c0.971,0.438,2.023,0.665,3.088,0.665h158.367c1.065,0,2.118-0.227,3.089-0.665c4.882-2.206,9.642-4.602,14.282-7.163
				c9.002,5.273,19.003,7.868,28.96,7.868c14.802,0,29.501-5.727,40.656-16.881c18.682-18.683,22.13-47.305,8.957-69.704
				c7.109-12.897,12.806-26.596,16.948-40.853C452.211,310.055,470,287.382,470,260.974
				C470,234.583,452.237,211.924,427.128,205.372z M15,260.974c0-16.553,9.457-31.116,23.657-38.105
				C36.267,235.209,35,247.946,35,260.974c0,12.943,1.266,25.697,3.687,38.121C24.47,292.111,15,277.539,15,260.974z
				 M390.563,105.412c11.729,11.728,15.33,28.752,10.189,43.755c-14.37-21.235-32.71-39.575-53.945-53.945
				C361.811,90.082,378.835,93.682,390.563,105.412z M235,40.974c16.554,0,31.117,9.457,38.106,23.658
				c-12.341-2.391-25.077-3.658-38.106-3.658s-25.765,1.267-38.106,3.657C203.884,50.431,218.446,40.974,235,40.974z
				 M79.437,105.412c11.729-11.729,28.753-15.33,43.756-10.19c-21.235,14.37-39.575,32.71-53.945,53.945
				C64.106,134.163,67.708,117.139,79.437,105.412z M79.437,416.538c-11.727-11.727-15.33-28.752-10.189-43.756
				c14.21,21.08,32.428,39.48,53.854,53.976C108.12,431.854,91.141,428.244,79.437,416.538z M390.563,416.538
				c-11.703,11.705-28.683,15.316-43.665,10.22c21.426-14.496,39.643-32.896,53.854-53.976
				C405.893,387.786,402.291,404.811,390.563,416.538z M327.904,420.99c-0.038,0.023-0.077,0.044-0.115,0.068
				c-4.925,2.859-10.006,5.509-15.238,7.928H157.449c-5.23-2.418-10.31-5.066-15.233-7.925c-0.045-0.028-0.09-0.053-0.135-0.08
				C85.589,388.112,50,327.195,50,260.974c0-102.01,82.991-185,185-185c102.01,0,185,82.99,185,185
				C420,327.201,384.404,388.123,327.904,420.99z M431.313,299.095c2.422-12.424,3.687-25.178,3.687-38.121
				c0-13.029-1.267-25.765-3.657-38.106c14.2,6.99,23.657,21.552,23.657,38.106C455,277.539,445.53,292.111,431.313,299.095z"/>
			<path d="M235,90.974c-15.791,0-31.421,2.229-46.44,6.512c-0.551,0.093-1.098,0.251-1.634,0.475
				c-11.582,3.428-22.789,8.081-33.411,13.889c-0.388,0.174-0.752,0.38-1.095,0.611c-9.142,5.087-17.846,11.024-25.97,17.78
				c-3.185,2.648-3.619,7.378-0.971,10.563s7.378,3.618,10.563,0.971c4.979-4.141,10.2-7.942,15.617-11.403
				c1.508,12.776-2.833,25.857-12.119,35.143c-9.287,9.287-22.368,13.626-35.144,12.119c3.46-5.417,7.262-10.638,11.403-15.617
				c2.649-3.185,2.214-7.914-0.97-10.563c-3.184-2.647-7.914-2.213-10.562,0.971c-6.757,8.125-12.696,16.831-17.784,25.975
				c-0.228,0.341-0.433,0.702-0.606,1.086c-5.81,10.624-10.464,21.832-13.892,33.417c-0.224,0.537-0.383,1.085-0.476,1.638
				C67.229,229.558,65,245.186,65,260.974c0,31.619,8.841,62.591,25.566,89.566c16.687,26.913,40.427,48.579,68.654,62.657
				c1.04,0.519,2.186,0.788,3.347,0.788h144.865c1.162,0,2.308-0.27,3.348-0.788c28.227-14.077,51.967-35.743,68.654-62.656
				C396.159,323.565,405,292.593,405,260.974C405,167.236,328.738,90.974,235,90.974z M235,105.974
				c11.491,0,22.689,1.268,33.474,3.651c-7.965,10.141-20.309,16.349-33.474,16.349c-13.152,0-25.484-6.197-33.45-16.32
				C212.477,107.226,223.694,105.974,235,105.974z M83.736,294.379C81.295,283.507,80,272.315,80,260.974
				c0-11.307,1.251-22.523,3.679-33.45C93.803,235.49,100,247.822,100,260.974C100,274.099,93.825,286.411,83.736,294.379z
				 M151.65,391.647c-19.078-12.25-35.078-28.528-47.089-47.347c12.724-1.45,25.735,2.89,34.979,12.134
				C148.845,365.739,153.184,378.849,151.65,391.647z M318.349,391.647c-1.533-12.798,2.805-25.909,12.111-35.213
				c9.244-9.245,22.256-13.584,34.978-12.134C353.428,363.119,337.428,379.397,318.349,391.647z M386.349,227.5
				c2.383,10.784,3.651,21.983,3.651,33.474c0,11.341-1.295,22.533-3.736,33.404C376.175,286.411,370,274.099,370,260.974
				C370,247.81,376.208,235.466,386.349,227.5z M382.121,212.164C365.461,222.577,355,241.087,355,260.974
				c0,19.831,10.407,38.298,26.987,48.724c-2.388,7.124-5.288,14.055-8.66,20.744c-19.076-4.323-39.469,1.38-53.473,15.385
				c-13.934,13.934-19.646,34.17-15.453,53.159H165.6c4.192-18.989-1.519-39.226-15.453-53.158
				c-14.004-14.005-34.395-19.709-53.474-15.386c-3.372-6.689-6.272-13.62-8.66-20.744C104.593,299.272,115,280.806,115,260.974
				c0-19.869-10.443-38.363-27.074-48.78c2.362-7.101,5.24-14.027,8.605-20.724c4.236,0.971,8.536,1.459,12.82,1.459
				c15.047,0,29.866-5.878,40.796-16.808c14.042-14.042,19.739-34.499,15.354-53.618c6.695-3.365,13.621-6.241,20.72-8.604
				c10.417,16.631,28.911,27.074,48.78,27.074c19.888,0,38.398-10.462,48.809-27.12c7.144,2.376,14.057,5.26,20.7,8.607
				c-4.404,19.13,1.291,39.606,15.344,53.66c10.932,10.931,25.748,16.808,40.796,16.808c4.297,0,8.612-0.491,12.862-1.469
				C376.86,198.103,379.744,205.018,382.121,212.164z M330.46,165.514c-9.294-9.293-13.634-22.389-12.116-35.174
				c18.975,12.149,35.142,28.315,47.29,47.29C352.848,179.149,339.753,174.809,330.46,165.514z"/>
		</g>
	</g>
</g>
</svg>